<svg width="306" height="362" viewBox="0 0 306 362" fill="none" xmlns="http://www.w3.org/2000/svg">
<circle opacity="0.6" cx="153.022" cy="153.148" r="152.291" fill="#317F8B"/>
<path d="M204.658 320.738H124.137C110.327 320.738 99.0288 309.484 99.0288 295.73V224.871C99.0288 211.116 110.327 199.863 124.137 199.863H204.659C218.469 199.863 229.767 211.116 229.767 224.871V295.73C229.767 309.483 218.468 320.738 204.658 320.738Z" fill="white"/>
<path d="M204.658 199.862C218.468 199.862 229.767 211.115 229.767 224.87V295.729C229.767 309.483 218.468 320.737 204.658 320.737H124.138C110.328 320.737 99.0293 309.483 99.0293 295.729V224.87C99.0293 211.115 110.328 199.862 124.138 199.862H204.658ZM204.658 195.909H124.138C120.227 195.909 116.425 196.679 112.837 198.197C109.379 199.661 106.271 201.751 103.599 204.413C100.927 207.074 98.8275 210.171 97.3579 213.614C95.8339 217.188 95.0605 220.975 95.0605 224.87V295.729C95.0605 299.624 95.8339 303.411 97.3579 306.984C98.8275 310.429 100.926 313.524 103.599 316.185C106.271 318.846 109.38 320.938 112.837 322.402C116.425 323.919 120.227 324.69 124.138 324.69H204.659C208.57 324.69 212.372 323.919 215.96 322.402C219.418 320.938 222.526 318.847 225.198 316.185C227.869 313.524 229.97 310.428 231.439 306.984C232.963 303.411 233.736 299.624 233.736 295.729V224.87C233.736 220.975 232.963 217.188 231.439 213.614C229.97 210.17 227.871 207.074 225.198 204.413C222.526 201.752 219.417 199.661 215.96 198.197C212.372 196.679 208.569 195.909 204.658 195.909Z" fill="#317F8B"/>
<path d="M227.966 276.923C215.429 278.387 202.933 278.747 202.933 278.747C202.933 278.747 196.57 247.142 194.805 222.358C193.506 203.995 194.728 189.382 202.933 194.148C206.708 196.341 211.056 200.472 215.589 205.711C232.592 225.368 252.128 260.666 253.199 267.99C253.891 272.701 240.911 275.403 227.966 276.923Z" fill="white"/>
<path d="M201.255 280.852L200.913 279.152C200.874 278.958 196.982 259.538 194.464 239.43C192.978 227.575 192.253 217.786 192.305 210.338C192.376 200.164 193.859 194.394 196.972 192.179C198.339 191.207 200.663 190.453 203.974 192.376C214.889 198.719 228.743 218.924 236.029 230.403C240.889 238.06 245.542 246.109 249.131 253.066C251.659 257.968 254.772 264.485 255.243 267.693C255.38 268.625 255.288 270.038 254.075 271.477C252.32 273.557 248.677 275.186 242.607 276.6C238.156 277.637 232.438 278.529 225.61 279.252C214.049 280.475 203.103 280.799 202.994 280.802L201.255 280.852ZM200.092 195.293C199.694 195.293 199.485 195.442 199.37 195.523C198.024 196.48 193.99 202.437 198.555 238.9C200.623 255.415 203.625 271.469 204.623 276.63C208.142 276.489 216.495 276.084 225.197 275.162C245.399 273.022 249.912 270.023 250.915 268.834C251.193 268.505 251.171 268.353 251.16 268.287C250.574 264.295 242.953 249.001 232.542 232.598C220.485 213.603 209.316 200.235 201.896 195.925C201.054 195.436 200.482 195.293 200.092 195.293Z" fill="#317F8B"/>
<path d="M139.141 192.983L136.603 212.101L135.16 222.97L132.081 246.177C132.081 246.177 126.455 249.989 117.095 253.009C113.598 254.14 109.571 255.15 105.126 255.813C97.8593 256.902 89.4581 257.041 80.356 255.186C56.9381 250.409 42.8842 233.084 36.7996 224.373C25.0396 207.56 23.2299 203.014 26.499 195.936C28.9948 190.511 33.2708 189.521 33.2708 189.521C33.2708 189.521 33.0599 185.186 36.5048 183.645C46.8292 179.027 60.129 191.36 60.129 191.36C60.129 191.36 60.6245 178.097 67.7513 181.159C72.6612 183.27 73.7747 197.709 73.7747 197.709C73.7747 197.709 80.3651 206.143 90.8346 207.263C96.3058 207.848 103.877 206.267 111.396 203.971C111.483 203.945 111.572 203.92 111.659 203.888C115.667 202.656 119.648 201.227 123.293 199.814C124.928 199.183 126.496 198.551 127.965 197.945C134.535 195.232 139.141 192.983 139.141 192.983Z" fill="white"/>
<path opacity="0.35" d="M36.7964 224.373C42.8867 233.082 56.9383 250.41 80.3539 255.186C95.0213 258.175 107.874 255.979 117.097 253.006C126.456 249.989 132.081 246.175 132.081 246.175L132.494 227.862C132.494 227.862 126.117 221.74 120.177 224.236C113.04 227.235 115.328 237.428 105.135 240.263C76.7991 248.144 53.7804 233.745 46.3735 227.424C36.0979 218.655 33.4173 213.132 31.9715 210.853C28.9791 206.138 26.6682 202.432 25.3653 199.114C24.0375 204.727 26.8723 210.179 36.7964 224.373Z" fill="#317F8B"/>
<path d="M94.4847 258.664C89.5952 258.664 84.7262 258.175 79.941 257.198C69.4147 255.051 59.5938 250.217 50.7526 242.828C45.0625 238.074 39.7977 232.258 35.1055 225.548C29.3792 217.356 25.7393 211.729 24.0792 207.21C22.4883 202.878 22.6459 199.364 24.6212 195.076C26.5659 190.855 29.5062 188.913 31.283 188.081C31.5733 185.91 32.7038 183.095 35.6589 181.773C44.0545 178.017 53.7427 183.83 58.5381 187.408C58.5846 187.165 58.6368 186.916 58.6923 186.665C59.4872 183.114 60.8593 180.704 62.7699 179.503C63.9435 178.766 65.9018 178.128 68.5722 179.276C71.2812 180.442 73.2576 183.874 74.6161 189.768C75.3112 192.788 75.6457 195.623 75.7715 196.879C77.2298 198.523 82.9289 204.351 91.0569 205.22C105.894 206.803 137.91 191.294 138.232 191.137C138.914 190.804 139.726 190.872 140.343 191.314C140.96 191.756 141.283 192.501 141.184 193.251L134.129 246.444C134.052 247.024 133.731 247.544 133.245 247.872C133.009 248.033 127.35 251.831 117.942 254.893C112.431 256.686 106.762 257.854 101.092 258.366C98.8889 258.564 96.6845 258.664 94.4847 258.664ZM33.7482 191.517C33.4817 191.589 30.3328 192.528 28.37 196.789C25.7268 202.526 26.3765 205.87 38.4903 223.198C49.8794 239.489 64.498 249.853 80.7676 253.172C95.5914 256.195 108.467 253.652 116.659 250.986C123.603 248.726 128.391 246.03 130.163 244.954L136.599 196.435C133.237 197.964 127.737 200.366 121.565 202.67C107.827 207.798 97.4125 210.03 90.6169 209.305C79.4058 208.109 72.4389 199.344 72.1475 198.972C71.8992 198.653 71.7495 198.269 71.7189 197.867C71.7166 197.833 71.4365 194.326 70.5838 190.642C69.1471 184.432 67.4281 183.258 66.936 183.047C65.7045 182.517 65.1727 182.851 64.972 182.976C63.2382 184.062 62.2993 188.578 62.186 191.436C62.1542 192.238 61.6553 192.95 60.9103 193.256C60.1642 193.562 59.3092 193.408 58.7184 192.861C58.5959 192.748 46.2962 181.517 37.3484 185.521C35.2869 186.443 35.3243 189.226 35.33 189.426C35.3912 190.44 34.7449 191.306 33.7482 191.517Z" fill="#317F8B"/>
<path d="M61.826 191.357C61.8736 191.934 61.7874 192.46 61.6718 192.915C61.6139 193.15 61.5425 193.353 61.4699 193.562C61.3962 193.757 61.3157 193.956 61.2363 194.133C60.9109 194.863 60.5594 195.467 60.2249 196.053C59.8892 196.636 59.5661 197.191 59.2656 197.746L59.0456 198.164C58.9764 198.304 58.9027 198.443 58.8358 198.584L58.6408 199.009L58.4548 199.438L58.2859 199.874L58.1294 200.317C58.0761 200.465 58.0364 200.616 57.9888 200.766C57.9389 200.916 57.9014 201.07 57.8606 201.223C57.7041 201.837 57.5692 202.469 57.491 203.121C57.4059 203.772 57.3515 204.439 57.3356 205.118C57.3186 205.459 57.3254 205.8 57.322 206.148C57.3163 206.322 57.3311 206.493 57.3322 206.668C57.3356 206.844 57.3413 207.019 57.3402 207.196V207.208C57.3402 207.345 57.229 207.456 57.0907 207.456C56.9943 207.456 56.9115 207.401 56.8707 207.321C56.5396 206.682 56.2403 206.018 56.0089 205.324C55.7651 204.633 55.5905 203.913 55.4624 203.175C55.2106 201.7 55.2163 200.139 55.493 198.615L55.6075 198.046C55.6517 197.858 55.7005 197.672 55.747 197.483C55.7969 197.297 55.8524 197.114 55.9046 196.927C55.959 196.743 56.0237 196.564 56.0838 196.382C56.3321 195.659 56.6394 194.972 56.9558 194.329C57.271 193.686 57.6066 193.08 57.8788 192.553C58.1657 192.02 58.3278 191.588 58.4231 191.354L58.6226 190.865C58.9696 190.017 59.9414 189.609 60.793 189.955C61.3951 190.201 61.7749 190.755 61.826 191.357Z" fill="#317F8B"/>
<path d="M78.0884 256.597C77.568 256.597 77.0656 256.31 76.8184 255.814C76.4692 255.116 76.7549 254.269 77.4557 253.922C83.1741 251.088 87.0816 242.245 88.753 228.347C90.0491 217.577 89.5105 207.561 89.5048 207.461C89.4617 206.683 90.0593 206.017 90.8406 205.973C91.6185 205.929 92.2909 206.525 92.3351 207.303C92.3408 207.405 92.893 217.635 91.572 228.646C90.7907 235.161 89.515 240.689 87.7801 245.077C85.5349 250.756 82.4858 254.582 78.7189 256.449C78.5159 256.55 78.3005 256.597 78.0884 256.597Z" fill="#317F8B"/>
<g opacity="0.35">
<g opacity="0.35">
<g opacity="0.35">
<g opacity="0.35">
<path opacity="0.35" d="M261.023 347.468V347.18C258.756 347.277 261.023 347.468 261.023 347.468Z" fill="#317F8B"/>
</g>
</g>
</g>
</g>
<path d="M232.413 312.786H96.2393C96.2393 312.786 97.0693 289.379 105.125 255.812C108.353 242.35 112.747 227.253 118.714 211.376C120.147 207.564 121.674 203.707 123.294 199.813C127.821 188.949 133.102 177.824 139.26 166.698H189.393C194.483 175.897 198.974 185.091 202.935 194.147C205.498 200.003 207.839 205.797 209.974 211.488C219.293 236.297 224.765 259.196 227.968 276.922C231.917 298.789 232.413 312.786 232.413 312.786Z" fill="white"/>
<path d="M213.718 228.945C216.35 231.871 217.553 235.277 218.664 238.698C219.222 240.409 219.772 242.124 220.297 243.846C220.56 244.707 220.83 245.566 221.065 246.435C221.307 247.301 221.541 248.17 221.777 249.039L222.467 251.649C222.693 252.52 222.922 253.389 223.136 254.265L224.389 259.516C224.593 260.393 224.816 261.264 225.016 262.141L225.613 264.773L226.227 267.401C226.433 268.276 226.646 269.15 226.839 270.029L228.021 275.295C228.223 276.172 228.398 277.055 228.585 277.935L229.139 280.576L229.415 281.897L229.554 282.557L229.683 283.219L230.201 285.868C230.373 286.751 230.551 287.633 230.739 288.513C230.918 289.395 231.098 290.277 231.286 291.158C232.075 294.673 232.651 298.234 232.891 301.842C232.921 302.292 232.956 302.742 232.978 303.195L233.036 304.551C233.065 305.457 233.09 306.362 233.077 307.273C233.071 308.182 233.051 309.092 232.992 310.006C232.938 310.92 232.862 311.834 232.724 312.754C232.698 312.931 232.531 313.053 232.353 313.027C232.232 313.009 232.137 312.927 232.096 312.821L232.095 312.816C231.444 311.094 230.912 309.364 230.41 307.633C230.162 306.768 229.924 305.901 229.694 305.035L229.363 303.732C229.259 303.298 229.151 302.864 229.042 302.429C228.62 300.691 228.248 298.948 227.914 297.198C227.753 296.321 227.607 295.443 227.473 294.562C227.329 293.682 227.196 292.801 227.059 291.92C226.925 291.038 226.785 290.158 226.642 289.278C226.49 288.4 226.321 287.524 226.15 286.649L225.636 284.023L225.508 283.367L225.371 282.712L225.096 281.403L224.547 278.784C224.361 277.912 224.188 277.037 223.987 276.167L222.815 270.945C222.626 270.073 222.406 269.208 222.199 268.34L221.558 265.742L220.902 263.147C220.795 262.715 220.674 262.285 220.558 261.854L220.205 260.563L218.789 255.402C218.299 253.686 217.798 251.974 217.321 250.255C217.083 249.396 216.845 248.536 216.613 247.675L216.441 247.029L216.258 246.385L215.899 245.096C215.419 243.378 214.964 241.653 214.517 239.925L214.188 238.626C214.078 238.193 213.956 237.764 213.841 237.333C213.611 236.47 213.418 235.596 213.273 234.707C213.129 233.817 213.028 232.913 212.989 231.99C212.969 231.528 212.967 231.06 212.984 230.586C213.002 230.111 213.032 229.631 213.116 229.136L213.12 229.116C213.151 228.929 213.329 228.802 213.518 228.834C213.598 228.849 213.668 228.889 213.718 228.945Z" fill="#317F8B"/>
<path d="M95.9199 312.775C95.7101 312.31 95.5661 311.848 95.4311 311.384C95.2962 310.919 95.1953 310.459 95.1057 309.996C94.9243 309.07 94.8268 308.149 94.7723 307.231C94.7474 306.772 94.7304 306.313 94.7315 305.856C94.7326 305.398 94.7508 304.943 94.7723 304.488L94.8494 303.123C94.8732 302.667 94.9016 302.212 94.939 301.758C95.0808 299.942 95.2191 298.124 95.4323 296.317C95.5287 295.411 95.6364 294.507 95.743 293.603C95.7951 293.151 95.8654 292.702 95.9267 292.25L96.1183 290.898L96.5186 288.198C96.6592 287.299 96.8225 286.404 96.9755 285.507C97.2885 283.715 97.5833 281.92 97.9405 280.137C98.2875 278.351 98.605 276.561 98.9599 274.779C99.3205 272.998 99.672 271.215 100.019 269.43C100.107 268.984 100.187 268.537 100.283 268.093L100.569 266.76L101.139 264.095L101.71 261.43C101.758 261.207 101.803 260.985 101.854 260.763L102.01 260.1L102.323 258.773L103.574 253.466C103.675 253.024 103.788 252.583 103.9 252.143C104.009 251.701 104.12 251.261 104.225 250.819C104.436 249.935 104.644 249.05 104.845 248.164C105.05 247.278 105.251 246.391 105.463 245.506C105.667 244.62 105.923 243.748 106.18 242.875C106.442 242.004 106.719 241.138 107.011 240.275C107.303 239.413 107.614 238.556 107.928 237.701L108.413 236.423C108.495 236.21 108.586 236 108.674 235.789C108.764 235.579 108.85 235.368 108.943 235.158C109.309 234.318 109.68 233.483 110.075 232.655C110.465 231.825 110.872 231.001 111.299 230.186C111.727 229.371 112.17 228.561 112.662 227.768C112.756 227.615 112.957 227.568 113.11 227.663C113.215 227.727 113.27 227.841 113.264 227.957V227.961C113.06 231.688 112.36 235.234 111.668 238.78C111.49 239.664 111.308 240.547 111.109 241.426C110.908 242.303 110.693 243.176 110.464 244.045C109.985 245.777 109.504 247.509 109.003 249.237C108.753 250.101 108.509 250.966 108.267 251.832C108.145 252.265 108.03 252.699 107.913 253.133C107.799 253.568 107.681 254.002 107.583 254.441L106.346 259.692L106.037 261.004L105.883 261.66C105.832 261.879 105.787 262.099 105.74 262.319L105.175 264.956L104.61 267.593L104.328 268.912C104.234 269.351 104.154 269.794 104.067 270.234C102.618 277.281 101.644 284.412 100.697 291.528L100.33 294.196C100.215 295.086 100.101 295.976 99.9759 296.865L99.2457 302.199C99.113 303.088 99.0064 303.976 98.8862 304.865C98.8238 305.309 98.7581 305.754 98.6753 306.197C98.5937 306.639 98.5131 307.082 98.4134 307.524C98.2149 308.407 97.9689 309.288 97.6774 310.167C97.5323 310.606 97.3588 311.046 97.1808 311.485C96.9982 311.923 96.7998 312.363 96.5549 312.8L96.5526 312.805C96.4573 312.974 96.243 313.035 96.0729 312.94C96.0015 312.9 95.9505 312.841 95.9199 312.775Z" fill="#317F8B"/>
<path d="M135.459 283.254C127.693 286.386 115.673 285.731 107.48 284.743C102.565 284.151 99.1147 279.633 99.8393 274.756C100.5 270.305 104.434 267.068 108.946 267.278C116.61 267.636 128.107 267.803 135.388 266.195" fill="white"/>
<g opacity="0.35">
<g opacity="0.35">
<g opacity="0.35">
<g opacity="0.35">
<path opacity="0.35" d="M135.462 283.253C127.693 286.389 115.673 285.727 107.48 284.746C102.565 284.153 99.1157 279.633 99.8403 274.759C99.9843 273.764 100.298 272.83 100.744 271.977C102.038 274.438 104.488 276.252 107.48 276.613C115.659 277.601 127.658 278.256 135.428 275.14L135.462 283.253Z" fill="#317F8B"/>
</g>
</g>
</g>
</g>
<path d="M120.018 287.614C115.525 287.614 111.057 287.244 107.231 286.784C104.301 286.43 101.701 284.948 99.9094 282.61C98.1144 280.268 97.3649 277.372 97.7981 274.456C98.1927 271.799 99.5556 269.394 101.635 267.685C103.717 265.974 106.348 265.101 109.042 265.228C120.333 265.754 129.53 265.386 134.94 264.191C136.026 263.952 138.725 263.943 140.318 269.044C141.936 274.227 141.757 282.933 136.234 285.161C131.679 286.996 125.828 287.614 120.018 287.614ZM108.527 269.323C105.2 269.323 102.372 271.737 101.88 275.056C101.611 276.865 102.076 278.663 103.19 280.117C104.3 281.566 105.911 282.484 107.728 282.703C119.445 284.115 129.02 283.635 134.686 281.35C136.369 280.671 136.852 277.955 136.982 276.819C137.436 272.843 136.221 269.171 135.46 268.282C128.076 269.828 116.949 269.709 108.85 269.331C108.742 269.325 108.634 269.323 108.527 269.323Z" fill="#317F8B"/>
<path d="M194.865 283.254C202.631 286.386 214.651 285.731 222.844 284.743C227.759 284.151 231.209 279.633 230.485 274.756C229.824 270.305 225.89 267.068 221.378 267.278C213.714 267.636 202.217 267.803 194.936 266.195" fill="white"/>
<g opacity="0.35">
<g opacity="0.35">
<g opacity="0.35">
<g opacity="0.35">
<path opacity="0.35" d="M222.842 284.746C214.648 285.728 202.63 286.39 194.86 283.253L194.894 275.065C202.662 278.181 214.662 277.526 222.842 276.538C225.819 276.183 228.256 274.383 229.557 271.935C230.015 272.795 230.337 273.742 230.488 274.758C231.207 279.633 227.757 284.153 222.842 284.746Z" fill="#317F8B"/>
</g>
</g>
</g>
</g>
<path d="M210.306 287.614C204.496 287.614 198.647 286.996 194.09 285.16C188.567 282.932 188.388 274.226 190.006 269.043C191.598 263.943 194.298 263.951 195.384 264.19C200.795 265.386 209.993 265.754 221.282 265.227C223.978 265.101 226.607 265.975 228.689 267.684C230.768 269.393 232.131 271.798 232.526 274.455C232.959 277.371 232.209 280.267 230.415 282.609C228.623 284.947 226.023 286.429 223.093 286.783C219.267 287.243 214.798 287.614 210.306 287.614ZM194.865 268.282C194.104 269.171 192.89 272.844 193.343 276.819C193.472 277.955 193.955 280.671 195.639 281.35C201.306 283.635 210.88 284.116 222.597 282.703C224.413 282.484 226.025 281.566 227.135 280.117C228.249 278.663 228.714 276.866 228.445 275.056C227.937 271.631 224.941 269.171 221.476 269.331C213.375 269.709 202.249 269.827 194.865 268.282Z" fill="#317F8B"/>
<path d="M197.866 260.558V287.896C197.866 292.968 193.698 297.12 188.606 297.12H138.056C132.971 297.12 128.802 292.968 128.802 287.896V260.558C128.802 255.486 132.971 251.341 138.056 251.341H188.606C191.604 251.341 194.28 252.78 195.977 254.994C197.161 256.542 197.866 258.472 197.866 260.558Z" fill="white"/>
<g opacity="0.35">
<g opacity="0.35">
<g opacity="0.35">
<g opacity="0.35">
<path opacity="0.35" d="M197.865 260.558V287.896C197.865 292.968 193.699 297.118 188.606 297.118H138.058C132.965 297.118 128.799 292.968 128.799 287.896V277.67C136.391 285.38 151.321 290.219 165.015 290.292C169.414 290.315 172.964 286.849 173.278 282.477C173.281 282.433 173.284 282.389 173.288 282.346C173.625 278.511 176.796 275.405 180.652 275.128C185.042 274.813 188.749 278.043 189.183 282.241C195.811 274.091 193.87 259.926 195.978 254.994C197.163 256.544 197.865 258.471 197.865 260.558Z" fill="#317F8B"/>
</g>
</g>
</g>
</g>
<path d="M188.607 299.173H138.057C131.816 299.173 126.738 294.116 126.738 287.899V260.558C126.738 254.342 131.816 249.284 138.057 249.284H188.607C194.848 249.284 199.926 254.342 199.926 260.558V287.899C199.926 294.116 194.848 299.173 188.607 299.173ZM138.057 253.393C134.09 253.393 130.863 256.607 130.863 260.558V287.899C130.863 291.85 134.09 295.064 138.057 295.064H188.607C192.574 295.064 195.801 291.85 195.801 287.899V260.558C195.801 256.607 192.574 253.393 188.607 253.393H138.057Z" fill="#317F8B"/>
<path d="M181.24 282.179C185.649 282.179 189.223 278.619 189.223 274.228C189.223 269.837 185.649 266.277 181.24 266.277C176.831 266.277 173.257 269.837 173.257 274.228C173.257 278.619 176.831 282.179 181.24 282.179Z" fill="#22A7F0"/>
<g opacity="0.7">
<g opacity="0.7">
<g opacity="0.7">
<g opacity="0.7">
<path opacity="0.7" d="M189.223 274.228C189.223 274.772 189.171 275.301 189.067 275.817C188.33 272.182 185.105 269.446 181.242 269.446C177.373 269.446 174.148 272.182 173.411 275.817C173.308 275.301 173.256 274.774 173.256 274.228C173.256 269.835 176.831 266.279 181.242 266.279C185.646 266.279 189.223 269.835 189.223 274.228Z" fill="white"/>
</g>
</g>
</g>
</g>
<g opacity="0.35">
<g opacity="0.35">
<g opacity="0.35">
<g opacity="0.35">
<path opacity="0.35" d="M189.221 274.227C189.221 278.617 185.648 282.176 181.24 282.176C176.833 282.176 173.26 278.617 173.26 274.227C173.26 273.212 173.451 272.243 173.807 271.35C174.957 274.316 177.853 276.416 181.241 276.416C184.63 276.416 187.525 274.316 188.676 271.35C189.029 272.243 189.221 273.211 189.221 274.227Z" fill="#317F8B"/>
</g>
</g>
</g>
</g>
<path d="M181.24 283.719C175.986 283.719 171.711 279.462 171.711 274.228C171.711 268.994 175.986 264.737 181.24 264.737C186.495 264.737 190.77 268.994 190.77 274.228C190.77 279.462 186.495 283.719 181.24 283.719ZM181.24 267.819C177.692 267.819 174.805 270.694 174.805 274.228C174.805 277.762 177.692 280.637 181.24 280.637C184.789 280.637 187.675 277.762 187.675 274.228C187.675 270.694 184.789 267.819 181.24 267.819Z" fill="#317F8B"/>
<path d="M158.62 298.659C157.765 298.659 157.073 297.969 157.073 297.119V278.393L146.964 270.813V251.339C146.964 250.487 147.657 249.798 148.511 249.798C149.365 249.798 150.058 250.488 150.058 251.339V269.275L160.167 276.855V297.119C160.167 297.969 159.474 298.659 158.62 298.659Z" fill="#317F8B"/>
<path d="M164.324 311.838C173.266 311.838 181.864 308.534 188.581 302.653C197.883 294.508 213.544 284.794 230.83 291.025C237.766 293.523 242.492 298.107 245.717 303.179C254.022 284.013 271.443 282.865 278.984 293.727C278.984 293.727 266.309 353.956 262.178 355.296C256.26 357.216 242.041 355.197 242.041 355.197C242.041 355.197 192.572 348.527 164.324 348.527C136.075 348.527 86.6065 355.197 86.6065 355.197C86.6065 355.197 72.387 357.215 66.469 355.296C62.3381 353.956 49.6631 293.727 49.6631 293.727C57.2026 282.863 74.6254 284.013 82.9303 303.179C86.154 298.106 90.8814 293.523 97.8176 291.025C115.103 284.794 130.764 294.508 140.067 302.653C146.783 308.532 155.381 311.838 164.324 311.838Z" fill="white"/>
<g opacity="0.35">
<path d="M278.986 293.725C278.986 293.725 266.31 353.956 262.179 355.296C256.263 357.218 242.04 355.199 242.04 355.199C242.04 355.199 192.574 348.527 164.323 348.527C136.078 348.527 86.6059 355.199 86.6059 355.199C86.6059 355.199 72.3876 357.218 66.4731 355.296C62.3422 353.956 49.666 293.725 49.666 293.725C50.9088 291.937 52.4147 290.473 54.1065 289.364C58.1705 307.024 63.9353 330.081 66.4731 330.904C72.3888 332.819 86.6059 330.801 86.6059 330.801C86.6059 330.801 136.078 317.456 164.323 317.456C192.574 317.456 242.04 330.801 242.04 330.801C242.04 330.801 256.263 332.819 262.179 330.904C264.716 330.081 270.481 307.024 274.545 289.364C276.237 290.475 277.743 291.938 278.986 293.725Z" fill="#317F8B"/>
</g>
<path d="M74.0957 358.173C70.9933 358.173 67.9623 357.941 65.8305 357.25C64.3768 356.778 63.1545 355.173 60.8605 348.056C59.518 343.89 57.9066 338.088 56.0731 330.812C52.7711 317.713 49.553 303.022 48.3227 297.314C47.6786 294.326 48.6617 291.235 50.8899 289.249C55.1671 285.435 60.9002 283.967 66.6175 285.221C70.2211 286.011 73.7272 287.885 76.757 290.639C79.2664 292.922 81.4481 295.773 83.2669 299.144C86.9578 294.452 91.6047 291.079 97.1178 289.092C103.365 286.84 109.901 286.393 116.545 287.763C121.91 288.87 127.365 291.163 132.758 294.583C133.72 295.193 134.002 296.463 133.391 297.42C132.78 298.378 131.504 298.659 130.543 298.051C119.443 291.012 108.669 289.299 98.5216 292.957C92.7987 295.019 88.1394 298.828 84.6753 304.279C84.2659 304.923 83.5311 305.288 82.7703 305.229C82.0083 305.169 81.3415 304.695 81.0376 303.995C77.5678 295.986 71.9889 290.607 65.7307 289.236C61.3243 288.27 56.9179 289.391 53.6419 292.313C52.5148 293.317 52.0227 294.904 52.3572 296.455C53.5183 301.842 56.5618 315.743 59.7323 328.443C61.4751 335.424 63.0195 341.103 64.3235 345.322C66.1492 351.229 67.1028 352.962 67.4418 353.445C72.1023 354.746 82.5843 353.696 86.3172 353.166C86.3217 353.165 86.3263 353.165 86.3308 353.164C86.8263 353.098 136.262 346.475 164.325 346.475C192.388 346.475 241.823 353.098 242.318 353.164C242.323 353.165 242.329 353.165 242.333 353.166C246.067 353.696 256.548 354.746 261.208 353.445C261.542 352.971 262.469 351.288 264.234 345.622C265.507 341.536 267.014 336.029 268.715 329.255C271.747 317.176 274.653 304.033 276.116 297.275C276.596 295.06 275.762 292.79 273.993 291.491C270.618 289.012 266.434 288.272 262.214 289.408C256.168 291.036 250.983 296.216 247.613 303.996C247.31 304.695 246.643 305.17 245.88 305.23C245.117 305.29 244.384 304.924 243.975 304.28C240.511 298.83 235.853 295.02 230.13 292.958C219.893 289.268 209.027 291.042 197.832 298.228C196.874 298.842 195.598 298.568 194.98 297.613C194.363 296.66 194.639 295.389 195.597 294.773C201.023 291.29 206.513 288.945 211.915 287.804C218.626 286.385 225.227 286.82 231.534 289.093C237.047 291.08 241.694 294.455 245.386 299.146C249.26 291.972 254.764 287.156 261.138 285.441C266.519 283.992 272.096 284.991 276.443 288.183C279.516 290.44 280.97 294.347 280.151 298.14C278.602 305.3 275.531 319.173 272.372 331.626C270.581 338.689 269.008 344.315 267.696 348.348C265.457 355.23 264.255 356.787 262.819 357.253C256.546 359.288 242.477 357.337 241.76 357.236C240.985 357.132 192.029 350.585 164.326 350.585C136.618 350.585 87.6666 357.132 86.8909 357.236C86.4147 357.3 80.1225 358.173 74.0957 358.173Z" fill="#317F8B"/>
<path d="M258.505 355.297H262.179C266.492 355.297 270.403 352.777 272.16 348.853C277.659 336.587 287.687 309.634 278.294 293.186C278.021 292.706 277.728 292.244 277.419 291.802C277.419 291.802 268.402 283.633 261.924 295.189C255.873 305.985 243.172 352.144 258.505 355.297Z" fill="#AFAFB2"/>
<g opacity="0.7">
<g opacity="0.7">
<g opacity="0.7">
<g opacity="0.7">
<path opacity="0.7" d="M258.606 302.883C258.768 302.625 258.93 302.381 259.088 302.154C267.053 290.598 278.141 298.767 278.141 298.767C278.521 299.209 278.883 299.671 279.216 300.151C280.329 301.735 281.218 303.414 281.913 305.173C281.464 300.853 280.342 296.769 278.294 293.187C278.021 292.707 277.728 292.245 277.419 291.803C277.419 291.803 268.402 283.634 261.924 295.19C260.941 296.939 259.788 299.611 258.606 302.883Z" fill="white"/>
</g>
</g>
</g>
</g>
<path d="M281.864 306.405C281.771 306.405 281.677 306.397 281.582 306.381L259.044 302.634C258.118 302.48 257.492 301.607 257.646 300.683C257.8 299.761 258.678 299.137 259.603 299.291L282.141 303.038C283.067 303.192 283.693 304.065 283.539 304.989C283.401 305.819 282.681 306.405 281.864 306.405Z" fill="#317F8B"/>
<path d="M281.72 318.533C281.645 318.533 281.569 318.529 281.491 318.517L255.126 314.987C254.196 314.863 253.542 314.01 253.667 313.083C253.792 312.156 254.648 311.505 255.58 311.629L281.945 315.16C282.876 315.284 283.529 316.137 283.404 317.064C283.29 317.915 282.56 318.533 281.72 318.533Z" fill="#317F8B"/>
<path d="M279.395 330.412C279.326 330.412 279.257 330.408 279.187 330.4L252.422 327.137C251.49 327.023 250.827 326.178 250.94 325.25C251.055 324.322 251.902 323.66 252.835 323.774L279.599 327.037C280.531 327.151 281.195 327.996 281.081 328.924C280.976 329.783 280.242 330.412 279.395 330.412Z" fill="#317F8B"/>
<path d="M275.151 343.368C275.1 343.368 275.048 343.365 274.996 343.361L251.067 341.21C250.132 341.127 249.443 340.302 249.526 339.371C249.61 338.439 250.438 337.751 251.374 337.836L275.302 339.986C276.237 340.07 276.928 340.894 276.843 341.826C276.763 342.706 276.021 343.368 275.151 343.368Z" fill="#317F8B"/>
<g opacity="0.35">
<g opacity="0.35">
<g opacity="0.35">
<g opacity="0.35">
<path opacity="0.35" d="M258.504 355.296H262.178C266.491 355.296 270.402 352.777 272.158 348.853C273.58 345.674 275.31 341.515 276.927 336.804C274.721 340.449 270.24 342.761 265.32 342.761H260.94C254.708 341.686 252.363 335.598 252.27 327.619C250.164 341.087 250.742 353.7 258.504 355.296Z" fill="#317F8B"/>
</g>
</g>
</g>
</g>
<path d="M262.179 356.991H258.505C258.389 356.991 258.275 356.979 258.162 356.956C255.192 356.345 252.948 354.427 251.491 351.254C248.056 343.775 249.725 330.746 251.731 321.132C254.183 309.384 257.968 298.772 260.44 294.363C262.712 290.309 265.575 287.974 268.947 287.426C274.12 286.586 278.385 290.386 278.564 290.548C278.658 290.633 278.742 290.729 278.815 290.831C279.154 291.315 279.477 291.826 279.775 292.349C284.068 299.867 284.979 310.15 282.483 322.911C280.453 333.286 276.595 343.12 273.714 349.543C271.688 354.068 267.162 356.991 262.179 356.991ZM258.69 353.602H262.179C265.819 353.602 269.128 351.468 270.606 348.164C273.414 341.902 277.174 332.324 279.143 322.265C281.48 310.322 280.696 300.82 276.817 294.024C276.606 293.654 276.38 293.292 276.146 292.947C275.508 292.428 272.613 290.253 269.476 290.774C267.188 291.154 265.147 292.917 263.41 296.015C261.122 300.097 257.419 310.529 255.063 321.822C252.374 334.71 252.204 344.662 254.585 349.846C255.551 351.95 256.895 353.181 258.69 353.602Z" fill="#317F8B"/>
<path d="M70.1454 355.297H66.4714C62.158 355.297 58.2471 352.777 56.4906 348.853C50.9911 336.587 40.9637 309.634 50.3561 293.186C50.6293 292.706 50.9219 292.244 51.2314 291.802C51.2314 291.802 60.2484 283.633 66.7266 295.189C72.7772 305.985 85.4772 352.144 70.1454 355.297Z" fill="#AFAFB2"/>
<g opacity="0.7">
<g opacity="0.7">
<g opacity="0.7">
<g opacity="0.7">
<path opacity="0.7" d="M70.0421 302.883C69.8799 302.625 69.7178 302.381 69.5602 302.154C61.5955 290.598 50.5068 298.767 50.5068 298.767C50.1269 299.209 49.7652 299.671 49.4318 300.151C48.3194 301.735 47.4304 303.414 46.7354 305.173C47.1844 300.853 48.3058 296.769 50.3537 293.187C50.627 292.707 50.9195 292.245 51.2291 291.803C51.2291 291.803 60.2461 283.634 66.7242 295.19C67.7062 296.939 68.8605 299.611 70.0421 302.883Z" fill="white"/>
</g>
</g>
</g>
</g>
<path d="M46.7848 306.405C45.9683 306.405 45.2483 305.817 45.1088 304.99C44.9546 304.067 45.5794 303.194 46.507 303.039L69.0449 299.292C69.9713 299.138 70.8478 299.76 71.0021 300.684C71.1563 301.607 70.5315 302.48 69.6039 302.635L47.066 306.382C46.9719 306.398 46.8778 306.405 46.7848 306.405Z" fill="#317F8B"/>
<path d="M46.9272 318.533C46.0881 318.533 45.3578 317.915 45.2433 317.065C45.1186 316.138 45.7717 315.285 46.7027 315.161L73.0688 311.629C74.0008 311.504 74.8558 312.156 74.9817 313.083C75.1064 314.01 74.4533 314.863 73.5223 314.987L47.1562 318.519C47.0791 318.529 47.0032 318.533 46.9272 318.533Z" fill="#317F8B"/>
<path d="M49.2537 330.412C48.4067 330.412 47.673 329.783 47.5675 328.924C47.453 327.995 48.1164 327.151 49.0496 327.037L75.8137 323.774C76.7458 323.661 77.594 324.32 77.7085 325.25C77.823 326.178 77.1597 327.023 76.2264 327.137L49.4623 330.4C49.392 330.409 49.3217 330.412 49.2537 330.412Z" fill="#317F8B"/>
<path d="M53.499 343.367C52.6282 343.367 51.8866 342.706 51.8072 341.826C51.7233 340.894 52.4127 340.071 53.3482 339.986L77.2763 337.836C78.213 337.752 79.0385 338.439 79.1235 339.371C79.2074 340.302 78.518 341.126 77.5825 341.21L53.6544 343.361C53.6022 343.365 53.5501 343.367 53.499 343.367Z" fill="#317F8B"/>
<g opacity="0.35">
<g opacity="0.35">
<g opacity="0.35">
<g opacity="0.35">
<path opacity="0.35" d="M70.1441 355.296H66.4702C62.1567 355.296 58.2458 352.777 56.4894 348.853C55.0674 345.674 53.3382 341.515 51.7212 336.804C53.9267 340.449 58.408 342.761 63.3281 342.761H67.7073C73.9394 341.686 76.2843 335.598 76.3773 327.619C78.4842 341.087 77.9047 353.7 70.1441 355.296Z" fill="#317F8B"/>
</g>
</g>
</g>
</g>
<path d="M70.1444 356.99H66.4705C61.4892 356.99 56.9614 354.068 54.9362 349.543C52.0572 343.121 48.1973 333.287 46.1676 322.912C43.6718 310.151 44.5823 299.868 48.8754 292.349C49.1736 291.826 49.4968 291.316 49.8347 290.833C49.9073 290.729 49.9912 290.634 50.0853 290.549C50.2644 290.386 54.5291 286.587 59.7021 287.427C63.0744 287.975 65.9376 290.31 68.21 294.364C70.6819 298.773 74.467 309.385 76.9185 321.133C78.9244 330.747 80.5936 343.777 77.1589 351.255C75.7018 354.428 73.4578 356.346 70.488 356.957C70.3746 356.979 70.259 356.99 70.1444 356.99ZM52.5028 292.948C52.2681 293.292 52.0436 293.654 51.8327 294.023C47.9524 300.82 47.1688 310.32 49.5058 322.265C51.4743 332.326 55.2333 341.902 58.042 348.164C59.5218 351.469 62.8295 353.603 66.4694 353.603H69.9585C71.7535 353.182 73.0983 351.951 74.0644 349.846C76.4445 344.662 76.2756 334.71 73.587 321.822C71.2307 310.529 67.5273 300.097 65.2391 296.015C63.503 292.917 61.462 291.154 59.1737 290.774C56.0418 290.254 53.148 292.423 52.5028 292.948Z" fill="#317F8B"/>
<path d="M111.616 353.75C111.374 353.75 111.129 353.694 110.9 353.574C110.143 353.18 109.85 352.248 110.247 351.494C116.707 339.2 116.802 325.374 110.531 310.402C105.8 299.109 99.0258 291.382 98.9578 291.305C98.3931 290.667 98.4543 289.693 99.095 289.13C99.7356 288.567 100.713 288.627 101.278 289.265C101.567 289.591 108.415 297.389 113.35 309.128C116.261 316.054 117.885 322.909 118.178 329.501C118.545 337.79 116.799 345.67 112.988 352.923C112.711 353.45 112.173 353.75 111.616 353.75Z" fill="#317F8B"/>
<path d="M217.66 353.75C217.102 353.75 216.565 353.45 216.288 352.923C212.477 345.67 210.731 337.791 211.098 329.502C211.391 322.91 213.015 316.055 215.926 309.129C220.861 297.39 227.709 289.591 227.998 289.266C228.564 288.628 229.542 288.567 230.182 289.131C230.823 289.693 230.884 290.666 230.318 291.305C230.25 291.381 223.476 299.109 218.745 310.402C212.474 325.375 212.569 339.2 219.029 351.494C219.425 352.248 219.132 353.179 218.376 353.574C218.147 353.694 217.902 353.75 217.66 353.75Z" fill="#317F8B"/>
<g opacity="0.35">
<path d="M215.59 205.711C213.805 207.745 211.928 209.676 209.973 211.49C205.332 215.794 200.246 219.457 194.806 222.359C185.615 227.27 175.42 230.023 164.683 230.074C154.193 230.12 144.209 227.583 135.159 222.97C129.233 219.945 123.71 216.036 118.713 211.377C116.227 209.055 113.87 206.553 111.657 203.888C115.665 202.656 119.646 201.227 123.291 199.814C127.819 188.951 133.1 177.825 139.258 166.699H189.39C194.48 175.898 198.972 185.092 202.933 194.148C206.709 196.341 211.056 200.472 215.59 205.711Z" fill="#317F8B"/>
</g>
<path d="M240.879 156.106C240.006 156.2 239.222 155.571 239.128 154.702L234.235 109.352C234.141 108.482 234.773 107.702 235.646 107.608C244.805 106.628 253.027 113.228 254.011 122.35L255.681 137.815C256.666 146.937 250.038 155.126 240.879 156.106Z" fill="white"/>
<path d="M240.706 156.506C240.256 156.506 239.821 156.355 239.466 156.069C239.054 155.738 238.796 155.267 238.739 154.743L233.847 109.393C233.79 108.869 233.942 108.354 234.274 107.944C234.606 107.534 235.079 107.277 235.605 107.221C244.966 106.219 253.397 112.987 254.402 122.309L256.07 137.774C256.558 142.289 255.251 146.724 252.389 150.26C249.528 153.796 245.455 156.011 240.921 156.496L240.879 156.108L240.921 156.496C240.85 156.503 240.777 156.506 240.706 156.506ZM237.441 107.902C236.862 107.902 236.278 107.932 235.689 107.995C235.371 108.029 235.085 108.185 234.884 108.432C234.683 108.681 234.592 108.991 234.626 109.309L239.519 154.659C239.553 154.976 239.709 155.261 239.958 155.461C240.208 155.66 240.52 155.752 240.838 155.718C245.164 155.255 249.049 153.142 251.78 149.768C254.51 146.395 255.758 142.164 255.293 137.855L253.625 122.391C252.727 114.084 245.649 107.902 237.441 107.902Z" fill="#317F8B"/>
<g opacity="0.35">
<g opacity="0.35">
<g opacity="0.35">
<g opacity="0.35">
<path opacity="0.35" d="M254.898 130.563L255.683 137.816C256.666 146.935 250.04 155.126 240.88 156.11C240.007 156.205 239.223 155.57 239.129 154.702L237.824 142.646C238.128 143.169 238.722 143.49 239.362 143.427L240.442 143.308C247.679 142.534 253.339 137.255 254.898 130.563Z" fill="#317F8B"/>
</g>
</g>
</g>
</g>
<path d="M240.704 158.29C239.846 158.29 239.021 158.001 238.344 157.457C237.559 156.828 237.068 155.931 236.96 154.934L232.067 109.584C231.96 108.587 232.249 107.607 232.881 106.825C233.512 106.044 234.412 105.555 235.414 105.447C245.753 104.341 255.07 111.819 256.182 122.118L257.85 137.583C258.388 142.572 256.944 147.471 253.782 151.379C250.621 155.285 246.121 157.733 241.112 158.268C240.977 158.282 240.84 158.29 240.704 158.29ZM240.649 153.946H240.648C240.648 153.946 240.648 153.946 240.649 153.946ZM236.472 109.718L241.235 153.873C244.849 153.34 248.081 151.501 250.387 148.651C252.817 145.648 253.927 141.883 253.514 138.047L251.846 122.583C251.012 114.862 244.181 109.203 236.472 109.718Z" fill="#317F8B"/>
<path d="M85.3568 123.694C86.2299 123.6 87.0135 124.229 87.1076 125.099L92.0005 170.449C92.0946 171.318 91.463 172.099 90.5899 172.193C81.4311 173.173 73.209 166.573 72.2248 157.45L70.5568 141.986C69.5702 132.863 76.1981 124.674 85.3568 123.694Z" fill="white"/>
<path d="M88.7938 172.679C80.1918 172.68 72.7725 166.2 71.8336 157.492L70.1656 142.027C69.1598 132.705 75.9554 124.307 85.3149 123.305L85.3568 123.694L85.3149 123.305C86.4001 123.189 87.3798 123.975 87.4966 125.057L92.3895 170.407C92.5063 171.489 91.7171 172.464 90.6308 172.58C90.015 172.647 89.4004 172.679 88.7938 172.679ZM85.5269 124.074C85.4838 124.074 85.4419 124.077 85.3977 124.081C76.468 125.037 69.9842 133.05 70.9446 141.944L72.6126 157.409C73.5719 166.303 81.616 172.761 90.5468 171.805C91.2034 171.735 91.6808 171.146 91.6105 170.492L86.7176 125.142C86.6518 124.53 86.1302 124.074 85.5269 124.074Z" fill="#317F8B"/>
<g opacity="0.35">
<g opacity="0.35">
<g opacity="0.35">
<g opacity="0.35">
<path opacity="0.35" d="M90.6471 157.867L92.0033 170.449C92.0986 171.318 91.4613 172.099 90.5893 172.193C85.7814 172.705 81.2276 171.132 77.8462 168.198C74.7925 165.548 72.6948 161.783 72.2265 157.453L71.5234 150.936C74.7404 156.375 80.9622 159.738 87.6774 159.02L89.3386 158.842C89.9441 158.776 90.4237 158.387 90.6471 157.867Z" fill="#317F8B"/>
</g>
</g>
</g>
</g>
<path d="M88.7926 174.461C79.288 174.463 71.0919 167.303 70.0544 157.682L68.3864 142.217C67.2751 131.918 74.784 122.639 85.1243 121.532C87.1903 121.311 89.0545 122.806 89.2768 124.865L94.1697 170.216C94.3919 172.276 92.8906 174.131 90.8223 174.352C90.1408 174.426 89.4627 174.461 88.7926 174.461ZM85.0018 125.929C77.3592 127.058 71.8914 134.034 72.7237 141.754L74.3917 157.219C75.2251 164.94 82.0559 170.598 89.7655 170.084L85.0018 125.929Z" fill="#317F8B"/>
<path d="M163.126 217.625C206.225 217.625 241.163 182.826 241.163 139.9C241.163 96.9731 206.225 62.1743 163.126 62.1743C120.028 62.1743 85.0894 96.9731 85.0894 139.9C85.0894 182.826 120.028 217.625 163.126 217.625Z" fill="white"/>
<path d="M163.051 218.017C153.483 218.017 144.136 216.308 135.224 212.925C125.748 209.329 117.163 204.001 109.705 197.091C102.247 190.18 96.294 182.035 92.0089 172.881C87.573 163.403 85.1305 153.255 84.7484 142.716C84.3663 132.178 86.0683 121.88 89.8068 112.108C93.4173 102.67 98.7671 94.1194 105.704 86.6913C112.642 79.2633 120.822 73.3328 130.014 69.0648C139.53 64.6466 149.719 62.2139 160.3 61.8333C170.88 61.4527 181.22 63.1479 191.03 66.8715C200.506 70.4675 209.091 75.796 216.549 82.7057C224.007 89.6165 229.96 97.7617 234.245 106.915C238.681 116.393 241.124 126.542 241.506 137.081C241.888 147.619 240.186 157.917 236.447 167.688C232.837 177.127 227.487 185.677 220.549 193.106C213.61 200.534 205.432 206.463 196.242 210.731C186.726 215.149 176.536 217.582 165.956 217.962C164.984 217.999 164.016 218.017 163.051 218.017ZM163.163 62.5629C162.219 62.5629 161.278 62.5798 160.327 62.6137C117.542 64.1519 83.9887 100.072 85.5319 142.687C86.2792 163.33 95.0535 182.449 110.238 196.519C124.719 209.938 143.38 217.234 163.056 217.235C164.011 217.235 164.966 217.218 165.925 217.183C186.651 216.439 205.846 207.7 219.973 192.576C234.099 177.452 241.467 157.754 240.72 137.111C239.212 95.443 204.693 62.5629 163.163 62.5629Z" fill="#317F8B"/>
<g opacity="0.35">
<g opacity="0.35">
<g opacity="0.35">
<g opacity="0.35">
<path opacity="0.35" d="M239.977 126.372C240.6 129.866 240.982 133.446 241.115 137.098C242.663 179.996 209.009 216.026 165.939 217.576C122.869 219.118 86.6946 185.599 85.1378 142.702C85.0924 141.468 85.0765 140.233 85.0913 139.014C91.7179 176.637 125.347 204.578 164.754 203.163C206.586 201.657 239.53 167.63 239.977 126.372Z" fill="#317F8B"/>
</g>
</g>
</g>
</g>
<path d="M163.05 219.799C153.263 219.799 143.703 218.051 134.588 214.591C124.896 210.913 116.114 205.463 108.487 198.396C100.86 191.328 94.771 182.996 90.3884 173.634C85.8504 163.939 83.3524 153.557 82.9623 142.78C82.5722 132.002 84.3128 121.468 88.1375 111.473C91.8307 101.82 97.3019 93.0725 104.398 85.4761C111.494 77.8798 119.857 71.8138 129.258 67.4498C138.992 62.93 149.415 60.4419 160.236 60.0534C171.058 59.6649 181.633 61.3985 191.668 65.208C201.36 68.8864 210.142 74.3358 217.769 81.4035C225.396 88.4713 231.485 96.8029 235.868 106.166C240.406 115.86 242.904 126.242 243.294 137.02C243.684 147.797 241.943 158.331 238.119 168.327C234.425 177.98 228.954 186.727 221.858 194.323C214.762 201.919 206.397 207.984 196.997 212.349C187.263 216.869 176.84 219.357 166.019 219.746C165.028 219.781 164.037 219.799 163.05 219.799ZM163.164 64.3462C162.242 64.3462 161.322 64.3632 160.394 64.3959C118.594 65.898 85.8141 100.991 87.3222 142.624C88.0525 162.791 96.625 181.468 111.459 195.215C125.607 208.325 143.837 215.454 163.061 215.454C163.993 215.454 164.927 215.437 165.864 215.403C186.112 214.676 204.864 206.138 218.666 191.363C232.468 176.588 239.666 157.344 238.935 137.177C237.46 96.4674 203.736 64.3462 163.164 64.3462Z" fill="#317F8B"/>
<path d="M240.937 139.101C241.719 154.29 237.492 168.646 229.626 180.745C223.729 189.817 198.423 206.457 166.217 208.389C136.355 210.18 108.357 195.701 101.561 187.278C92.4938 176.041 86.8185 162.192 86.0372 147.002C83.9701 106.806 117.787 88.373 160.565 86.191C203.34 84.009 238.87 98.9046 240.937 139.101Z" fill="#17A2B8"/>
<path d="M161.034 210.036C146.185 210.036 133.271 206.35 124.698 203.057C113.843 198.887 104.301 193.06 100.39 188.213C90.7916 176.318 85.3102 162.093 84.538 147.078C84.0254 137.115 85.6753 128.074 89.4388 120.206C92.9823 112.802 98.4172 106.387 105.595 101.138C118.708 91.5467 137.689 85.8624 160.485 84.7002C183.283 83.5381 202.747 87.2606 216.774 95.4668C224.452 99.9584 230.518 105.787 234.801 112.793C239.353 120.236 241.921 129.062 242.433 139.025C243.205 154.041 239.21 168.748 230.883 181.557C227.423 186.879 218.829 193.403 208.457 198.58C199.346 203.128 184.637 208.781 166.305 209.879C164.525 209.986 162.765 210.036 161.034 210.036ZM168.535 87.4774C165.953 87.4774 163.322 87.5452 160.639 87.6819C138.429 88.8146 120.009 94.3001 107.37 103.544C93.2579 113.866 86.5836 128.462 87.5327 146.926C88.272 161.31 93.5266 174.94 102.727 186.343C105.465 189.735 113.144 195.419 125.778 200.272C135.073 203.842 149.616 207.889 166.126 206.899C183.951 205.829 198.255 200.333 207.116 195.91C218.989 189.983 225.985 183.599 228.369 179.935C236.352 167.656 240.181 153.562 239.442 139.178C238.492 120.715 230.355 106.874 215.258 98.0418C203.369 91.087 187.33 87.4774 168.535 87.4774Z" fill="#317F8B"/>
<g opacity="0.5">
<g opacity="0.5">
<g opacity="0.5">
<g opacity="0.5">
<path d="M225.401 136.196C226.375 128.661 222.721 121.984 217.24 121.281C211.759 120.578 206.526 126.116 205.552 133.65C204.578 141.185 208.232 147.862 213.713 148.565C219.194 149.268 224.427 143.73 225.401 136.196Z" fill="white"/>
</g>
</g>
</g>
</g>
<g opacity="0.5">
<g opacity="0.5">
<g opacity="0.5">
<g opacity="0.5">
<path d="M209.89 164.201C210.813 160.838 209.212 157.472 206.314 156.683C203.416 155.894 200.319 157.981 199.396 161.345C198.473 164.708 200.074 168.074 202.972 168.863C205.87 169.651 208.967 167.564 209.89 164.201Z" fill="white"/>
</g>
</g>
</g>
</g>
<g opacity="0.35">
<path d="M223.946 102.37C233.877 110.885 240.104 122.955 240.936 139.099C241.718 154.292 237.489 168.646 229.629 180.746C223.729 189.817 198.421 206.456 166.215 208.392C154.844 209.078 143.746 207.399 133.981 204.591C173.518 201.372 204.337 180.96 211.65 169.709C221.636 154.353 226.998 136.131 226.004 116.857C225.743 111.704 225.036 106.881 223.946 102.37Z" fill="#317F8B"/>
</g>
<path d="M90.1069 114.519C89.6669 114.519 89.2247 114.382 88.846 114.098C87.9547 113.43 87.7495 112.191 88.3561 111.277C91.5946 105.978 95.73 101.135 100.647 96.8842C105.434 92.746 111.002 89.1331 117.194 86.1458C123.257 83.2218 129.959 80.8795 137.112 79.1831C144.2 77.5026 151.766 76.4477 159.604 76.0479C167.313 75.6549 174.866 75.9203 182.054 76.8351C189.307 77.7589 196.204 79.348 202.551 81.556C209.045 83.8159 214.986 86.7343 220.211 90.2298C225.583 93.8235 230.229 98.0497 234.023 102.792C234.685 103.523 234.753 104.642 234.133 105.455C233.432 106.375 232.115 106.553 231.192 105.855L230.972 105.692L230.807 105.482C216.759 87.8456 190.884 78.6387 159.818 80.2233C128.581 81.8169 103.83 93.9466 91.9098 113.502L91.8554 113.591L91.784 113.685C91.3735 114.231 90.7442 114.519 90.1069 114.519Z" fill="#317F8B"/>
<g opacity="0.5">
<g opacity="0.5">
<g opacity="0.5">
<g opacity="0.5">
<path d="M104.66 170.028C104.66 170.028 90.1217 131.011 110.766 114.114C131.41 97.2175 162.284 95.7075 161.663 97.7156C161.663 97.7156 127.912 107.699 115.923 135.291C106.678 156.567 104.66 170.028 104.66 170.028Z" fill="white"/>
</g>
</g>
</g>
</g>
<path d="M233.85 359.768H95.4474C90.9661 359.768 87.333 356.15 87.333 351.687C87.333 349.115 89.4262 347.03 92.0082 347.03H237.289C239.871 347.03 241.964 349.115 241.964 351.687C241.964 356.151 238.331 359.768 233.85 359.768Z" fill="#E6E9FA"/>
<g opacity="0.3">
<g opacity="0.3">
<g opacity="0.3">
<g opacity="0.3">
<path opacity="0.3" d="M241.962 351.688C241.962 352.571 241.818 353.419 241.555 354.215C240.828 352.587 239.193 351.457 237.29 351.457H92.0093C90.7201 351.457 89.5498 351.976 88.7039 352.824C88.3014 353.225 87.9714 353.692 87.7401 354.216C87.477 353.42 87.333 352.573 87.333 351.689C87.333 350.405 87.8535 349.239 88.7051 348.397C89.551 347.55 90.7212 347.03 92.0105 347.03H237.29C239.874 347.029 241.962 349.114 241.962 351.688Z" fill="white"/>
</g>
</g>
</g>
</g>
<g opacity="0.35">
<g opacity="0.35">
<g opacity="0.35">
<g opacity="0.35">
<path opacity="0.35" d="M241.962 351.688C241.962 353.917 241.055 355.941 239.584 357.399C238.119 358.863 236.087 359.767 233.85 359.767H95.4493C90.968 359.767 87.3315 356.151 87.3315 351.688C87.3315 350.829 87.564 350.023 87.9756 349.33C89.2025 352.222 92.0906 354.256 95.4482 354.256H233.849C236.087 354.256 238.119 353.352 239.583 351.888C240.315 351.158 240.908 350.291 241.315 349.33C241.73 350.023 241.962 350.829 241.962 351.688Z" fill="#317F8B"/>
</g>
</g>
</g>
</g>
<path d="M233.851 361.824H95.448C89.8362 361.824 85.271 357.277 85.271 351.688C85.271 347.988 88.2941 344.977 92.0088 344.977H237.29C241.005 344.977 244.028 347.988 244.028 351.688C244.028 357.276 239.462 361.824 233.851 361.824ZM92.0077 349.086C90.5676 349.086 89.3951 350.252 89.3951 351.688C89.3951 355.012 92.1097 357.715 95.4469 357.715H233.851C237.188 357.715 239.902 355.012 239.902 351.688C239.902 350.253 238.731 349.086 237.29 349.086H92.0077Z" fill="#317F8B"/>
<path d="M250.043 256.04L236.506 347.028H92.7938L92.3039 343.736L79.2502 256.04C78.8227 253.159 81.0656 250.575 83.9843 250.575H245.308C248.234 250.575 250.471 253.159 250.043 256.04Z" fill="#FF66AC"/>
<path d="M250.043 256.04L236.506 347.028H92.7938L92.3039 343.736L79.2502 256.04C78.8227 253.159 81.0656 250.575 83.9843 250.575H245.308C248.234 250.575 250.471 253.159 250.043 256.04Z" fill="#E6E9FA"/>
<g opacity="0.5">
<g opacity="0.5">
<g opacity="0.5">
<g opacity="0.5">
<path opacity="0.5" d="M84.3532 261.688C83.9257 258.807 86.1686 256.223 89.0873 256.223H250.017L250.044 256.041C250.471 253.16 248.234 250.576 245.31 250.576H83.9858C81.067 250.576 78.8241 253.16 79.2516 256.041L92.3043 343.737L92.7941 347.029H97.0565L84.3532 261.688Z" fill="white"/>
</g>
</g>
</g>
</g>
<g opacity="0.35">
<g opacity="0.35">
<g opacity="0.35">
<g opacity="0.35">
<path opacity="0.35" d="M240.774 250.575H229.446C233.741 266.249 231.371 301.642 203.66 320.139C168.874 343.359 106.181 343.212 92.8711 343.736L93.361 347.028H231.971L245.508 256.04C245.935 253.159 243.698 250.575 240.774 250.575Z" fill="#317F8B"/>
</g>
</g>
</g>
</g>
<path d="M238.284 349.086H91.014L77.213 256.341C76.9205 254.377 77.4999 252.389 78.8016 250.886C80.1034 249.382 81.9936 248.521 83.986 248.521H245.312C247.305 248.521 249.195 249.382 250.496 250.886C251.798 252.389 252.378 254.377 252.085 256.341L238.284 349.086ZM94.5734 344.976H234.725L248.004 255.737C248.122 254.946 247.897 254.176 247.372 253.569C246.847 252.963 246.116 252.629 245.312 252.629H83.986C83.182 252.629 82.4506 252.964 81.9256 253.569C81.4006 254.176 81.1761 254.946 81.294 255.737L94.5734 344.976Z" fill="#317F8B"/>
<g opacity="0.3">
<g opacity="0.3">
<g opacity="0.3">
<g opacity="0.3">
<path opacity="0.3" d="M104.233 325.77C98.7815 313.801 94.8116 293.369 95.7063 281.345C96.6009 269.32 103.603 272.999 105.773 288.402C111.548 329.395 106.667 331.115 104.233 325.77Z" fill="white"/>
</g>
</g>
</g>
</g>
<path d="M183.425 288.479C183.601 286.943 183.805 285.39 183.502 283.828C183.367 283.658 183.243 283.485 183.108 283.315C182.662 283.155 182.227 282.946 181.762 282.829C178.492 281.988 175.177 281.655 171.809 281.944C167.417 282.321 163.386 283.671 159.92 286.451C158.664 287.454 157.52 288.587 156.349 289.686C156.035 289.984 155.793 290.108 155.352 289.907C154.315 289.438 153.197 289.228 152.061 289.171C149.017 289.033 146.3 290.014 143.766 291.598C141.019 293.322 138.806 295.624 136.744 298.09C135.867 299.135 136.208 300.299 137.514 300.738C138.339 301.006 139.163 301.269 139.987 301.538C141.963 302.175 143.933 302.806 145.903 303.442C145.899 303.503 145.904 303.535 145.895 303.565C145.879 303.604 145.862 303.648 145.835 303.685C145.013 304.738 145.213 305.711 146.079 306.626C146.172 306.728 146.252 306.848 146.334 306.958C146.788 307.552 147.251 308.153 147.732 308.772C147.076 309.277 146.43 309.706 145.86 310.224C145.572 310.485 145.318 310.865 145.209 311.241C145.024 311.847 145.34 312.467 145.882 312.786C146.456 313.13 147.048 313.116 147.584 312.732C148.263 312.25 148.911 311.729 149.602 311.203C150.254 312.06 150.872 312.869 151.492 313.669C152.203 314.58 152.693 314.736 153.795 314.432C153.996 314.37 154.194 314.327 154.431 314.27C154.447 314.505 154.465 314.693 154.476 314.869C154.616 317.707 154.745 320.548 154.902 323.377C154.973 324.719 156.037 325.353 157.254 324.778C158.352 324.262 159.45 323.715 160.527 323.133C163.01 321.788 165.268 320.142 167.07 317.952C169.326 315.196 170.574 312.118 169.99 308.482C169.965 308.338 170.085 308.093 170.21 308.02C171.317 307.309 172.453 306.644 173.561 305.928C176.064 304.303 178.077 302.191 179.651 299.668C181.79 296.238 182.97 292.475 183.425 288.479ZM147.533 300.755C145.252 300.016 142.888 299.248 140.459 298.46C142.968 295.804 145.624 293.484 149.201 292.505C150.746 292.082 152.532 292.118 153.587 292.545C151.584 295.266 149.577 297.988 147.533 300.755ZM166.713 312.43C166.133 314.272 165.027 315.772 163.664 317.109C161.97 318.752 159.998 319.979 157.866 321.097C157.738 318.488 157.606 315.936 157.477 313.436C160.701 312.187 163.853 310.969 167.021 309.742C167.144 310.612 166.994 311.533 166.713 312.43ZM178.617 294.963C177.579 297.401 176.219 299.621 174.277 301.46C172.779 302.871 171.081 304.002 169.291 305.009C164.441 307.736 159.241 309.617 153.926 311.207C153.666 311.281 153.507 311.268 153.336 311.031C152.965 310.505 152.549 309.999 152.157 309.481C152.131 309.452 152.122 309.403 152.084 309.311C152.22 309.202 152.365 309.095 152.512 308.983C155.545 306.663 158.593 304.351 161.627 302.027C162.504 301.364 162.542 300.225 161.73 299.567C161.163 299.105 160.416 299.112 159.762 299.602C157.936 300.989 156.115 302.376 154.294 303.769C152.936 304.803 151.589 305.833 150.178 306.911C149.694 306.28 149.227 305.705 148.805 305.1C148.733 304.992 148.806 304.718 148.903 304.584C150.52 302.181 152.124 299.765 153.807 297.403C155.471 295.059 157.364 292.892 159.446 290.905C161.397 289.026 163.513 287.369 166.07 286.38C167.71 285.744 169.401 285.312 171.149 285.126C171.308 285.103 171.538 285.261 171.65 285.407C173.427 287.695 175.182 289.986 176.943 292.283C177.472 292.966 177.993 293.663 178.538 294.338C178.701 294.541 178.721 294.715 178.617 294.963ZM179.67 291.762C177.915 289.471 176.201 287.243 174.484 285.005C174.486 284.954 174.501 284.894 174.509 284.839C176.508 285.077 178.511 285.321 180.536 285.563C180.498 287.734 180.176 289.723 179.67 291.762Z" fill="#317F8B"/>
<path d="M178.54 294.337C177.995 293.661 177.474 292.965 176.946 292.281C175.186 289.985 173.43 287.694 171.653 285.406C171.541 285.26 171.31 285.102 171.152 285.124C169.404 285.311 167.712 285.743 166.073 286.379C163.515 287.367 161.4 289.025 159.448 290.903C157.366 292.891 155.474 295.057 153.809 297.402C152.127 299.765 150.523 302.181 148.906 304.583C148.809 304.717 148.736 304.99 148.808 305.099C149.228 305.704 149.695 306.279 150.181 306.909C151.591 305.832 152.938 304.801 154.297 303.767C156.118 302.375 157.939 300.987 159.765 299.601C160.419 299.111 161.165 299.105 161.733 299.566C162.545 300.224 162.508 301.364 161.63 302.026C158.596 304.35 155.548 306.662 152.514 308.982C152.368 309.094 152.222 309.201 152.087 309.309C152.124 309.403 152.133 309.45 152.159 309.48C152.552 309.998 152.968 310.504 153.339 311.029C153.51 311.267 153.669 311.28 153.928 311.206C159.244 309.615 164.443 307.735 169.294 305.007C171.082 304.002 172.782 302.869 174.28 301.459C176.22 299.62 177.582 297.4 178.62 294.961C178.722 294.715 178.701 294.541 178.54 294.337ZM173.217 297.833C170.898 299.574 167.616 299.148 165.874 296.87C164.121 294.595 164.563 291.329 166.861 289.565C169.116 287.835 172.399 288.282 174.158 290.558C175.896 292.82 175.472 296.135 173.217 297.833Z" fill="white"/>
<path d="M179.67 291.761C177.914 289.474 176.199 287.243 174.483 285.005C174.489 284.952 174.5 284.896 174.508 284.839C176.507 285.079 178.512 285.322 180.539 285.564C180.5 287.732 180.175 289.723 179.67 291.761Z" fill="#DB2C2C"/>
<path d="M153.587 292.546C151.582 295.264 149.575 297.988 147.533 300.757C145.249 300.013 142.885 299.247 140.458 298.461C142.969 295.802 145.624 293.482 149.2 292.505C150.746 292.08 152.529 292.118 153.587 292.546Z" fill="#DB2C2C"/>
<path d="M163.661 317.109C161.968 318.753 159.998 319.981 157.864 321.097C157.735 318.49 157.605 315.938 157.477 313.436C160.7 312.188 163.852 310.971 167.024 309.741C167.146 310.613 166.993 311.532 166.715 312.432C166.135 314.274 165.029 315.773 163.661 317.109Z" fill="#DB2C2C"/>
<path d="M174.156 290.558C172.399 288.282 169.115 287.836 166.859 289.565C164.562 291.331 164.12 294.596 165.873 296.87C167.615 299.148 170.896 299.574 173.215 297.834C175.472 296.135 175.896 292.82 174.156 290.558ZM171.653 295.912C170.478 296.799 168.752 296.565 167.837 295.396C166.89 294.191 167.149 292.42 168.402 291.494C169.575 290.618 171.334 290.872 172.217 292.047C173.14 293.269 172.886 294.984 171.653 295.912Z" fill="#317F8B"/>
<path d="M171.651 295.912C170.476 296.799 168.75 296.565 167.833 295.394C166.891 294.191 167.146 292.42 168.399 291.494C169.575 290.62 171.331 290.871 172.215 292.044C173.138 293.267 172.887 294.985 171.651 295.912Z" fill="#22A7F0"/>
<path d="M249.331 260.841C249.331 260.841 238.193 255.577 227.734 260.299C217.718 264.821 210.632 297.016 223.609 305.171C231.618 310.205 237.069 305.759 241.601 307.064C248.321 309 262.11 275.851 249.331 260.841Z" fill="white"/>
<g opacity="0.35">
<path d="M254.356 281.793C253.036 295.287 245.883 308.298 241.602 307.064C237.069 305.76 231.618 310.207 223.609 305.174C217.41 301.275 215.791 291.896 216.884 282.66C217.621 288.049 219.71 292.666 223.609 295.116C231.618 300.144 236.951 297.808 241.602 297.007C247.352 296.015 252.04 289.76 254.356 281.793Z" fill="#317F8B"/>
</g>
<path d="M231.82 309.688C229.118 309.688 225.991 309.099 222.506 306.909C219.387 304.949 217.134 301.776 215.811 297.48C214.699 293.875 214.284 289.482 214.609 284.775C214.993 279.202 216.37 273.484 218.482 268.675C220.097 265.001 222.865 260.24 226.88 258.428C238.082 253.37 249.723 258.753 250.213 258.985L250.614 259.174L250.901 259.512C256.75 266.381 257.088 275.871 256.341 282.622C255.499 290.228 252.804 298.297 249.306 303.679C245.802 309.07 242.868 309.569 241.025 309.038C239.828 308.694 238.317 308.934 236.566 309.213C235.183 309.435 233.593 309.688 231.82 309.688ZM237.267 260.382C234.131 260.382 231.225 260.979 228.585 262.172C226.414 263.152 224.109 266.123 222.264 270.324C220.363 274.647 219.074 280.017 218.726 285.059C218.111 293.961 220.292 300.659 224.708 303.435C229.161 306.234 232.596 305.686 235.916 305.157C238.063 304.814 240.09 304.491 242.173 305.091C242.413 305.133 244.129 304.473 246.55 300.296C252.196 290.555 255.777 272.158 248.053 262.527C247.177 262.165 244.924 261.312 241.976 260.802C240.356 260.522 238.784 260.382 237.267 260.382Z" fill="#317F8B"/>
</svg>
